<svg width="32" height="32" viewBox="0 0 32 32" fill="none" xmlns="http://www.w3.org/2000/svg">
<mask id="mask0_5105_337" style="mask-type:luminance" maskUnits="userSpaceOnUse" x="0" y="0" width="32" height="32">
<path d="M31.7582 0H0.241699V32H31.7582V0Z" fill="white"/>
</mask>
<g mask="url(#mask0_5105_337)">
<path d="M17.6079 5.48027L18.8235 4.26467C21.2106 1.87754 25.0969 1.81846 27.4977 4.19183C28.4075 5.09314 29.0121 6.25679 29.2265 7.51931C29.441 8.78185 29.2545 10.0798 28.6933 11.231C28.4242 11.7809 28.3335 12.4011 28.4339 13.005C28.5344 13.6089 28.8209 14.1664 29.2535 14.5995C30.0491 13.8021 30.6797 12.8558 31.1094 11.8146C31.5391 10.7733 31.7595 9.65766 31.7579 8.53126C31.7562 7.40488 31.5328 6.28983 31.1002 5.24984C30.6675 4.20983 30.0341 3.26527 29.2364 2.4701C25.8792 -0.868148 20.4298 -0.801717 17.0821 2.54591L5.49531 14.1323L4.54278 13.1798C2.11517 10.7522 2.0997 6.78403 4.57013 4.39956C5.48458 3.51966 6.6496 2.94526 7.9044 2.75566C9.1592 2.56606 10.4419 2.7706 11.5755 3.34105C12.0929 3.60619 12.6809 3.70104 13.2554 3.61205C13.83 3.52307 14.3617 3.2548 14.7746 2.84555L14.8042 2.81617C14.8134 2.80704 14.8207 2.79618 14.8257 2.7842C14.8306 2.77224 14.8332 2.75941 14.8332 2.74645C14.8332 2.7335 14.8306 2.72066 14.8257 2.70871C14.8207 2.69675 14.8134 2.68588 14.8042 2.67674C13.2094 1.12205 11.0724 0.248786 8.84521 0.241726C6.61805 0.234667 4.47549 1.09437 2.87092 2.63891C-0.585509 5.97561 -0.573157 11.5242 2.82402 14.9214L14.4073 26.5047L13.1769 27.7351C10.7898 30.1223 6.90333 30.1813 4.50261 27.808C3.59288 26.9067 2.98833 25.743 2.77386 24.4805C2.55941 23.218 2.74579 21.92 3.30686 20.7688C3.57603 20.2189 3.66675 19.5987 3.56636 18.9949C3.46595 18.3909 3.17942 17.8334 2.74681 17.4003C1.95125 18.1977 1.32061 19.144 0.8909 20.1852C0.461192 21.2265 0.240844 22.3421 0.24244 23.4686C0.244037 24.5949 0.467547 25.71 0.900207 26.7499C1.33287 27.79 1.96619 28.7346 2.764 29.5297C6.12101 32.8681 11.5705 32.8018 14.9183 29.454L26.52 17.8521L27.4762 18.8083C29.8633 21.1954 29.9224 25.0817 27.549 27.4824C26.6477 28.3923 25.484 28.9967 24.2215 29.2113C22.9591 29.4258 21.6611 29.2393 20.5099 28.6781C19.9598 28.4088 19.3393 28.318 18.7352 28.4187C18.131 28.5192 17.5733 28.806 17.1402 29.239C17.9377 30.0346 18.884 30.6653 19.9251 31.095C20.9664 31.5246 22.082 31.745 23.2085 31.7435C24.3349 31.7418 25.45 31.5182 26.4899 31.0856C27.5299 30.6529 28.4745 30.0196 29.2696 29.2218C32.6081 25.8648 32.5416 20.4153 29.194 17.0676L17.6079 5.48027ZM16.137 24.7742L7.22548 15.8627L15.8776 7.21075L24.7891 16.1223L16.137 24.7742Z" fill="black"/>
</g>
</svg>
